<svg width="149" height="49" viewBox="0 0 149 49" fill="none" xmlns="http://www.w3.org/2000/svg">
<g clip-path="url(#clip0_135_266)">
<path d="M148.112 22.1206L133.564 23.7296L132.837 17.1898L145.741 15.765L145.214 11.0543L132.31 12.4791L131.639 6.44368L145.91 4.86678L145.367 0L125.507 2.19325L128.517 29.2127L148.65 26.9874L148.112 22.1206Z" fill="black"/>
<path d="M112.298 7.04797H106.676V34.2315H125.672V29.2166H112.298V7.04797Z" fill="black"/>
<path d="M18.4979 16.1412C20.5796 14.9245 21.9098 12.6872 21.5923 9.84562C21.106 5.52315 17.9474 3.11777 12.0078 3.77815L0 5.11491L3.03007 32.1304L15.0378 30.7936C21.528 30.0732 24.6505 26.8874 24.0959 21.9445C23.7061 18.4786 21.2828 16.6215 18.4979 16.1412ZM6.09229 8.96912L11.1036 8.4128C14.1135 8.07661 15.7009 8.80902 15.9742 11.2624C16.2475 13.7158 14.865 14.7764 11.8551 15.1086L6.84379 15.6649L6.09229 8.96912ZM13.989 26.3791L8.1177 27.0314L7.31799 19.9074L13.1893 19.255C16.2756 18.9108 18.0639 19.6592 18.3613 22.3047C18.6506 24.8742 17.0793 26.0349 13.989 26.3791Z" fill="black"/>
<path d="M71.4397 17.3139C73.642 16.3334 75.2173 14.2602 75.2173 11.3985C75.2173 7.05205 72.348 4.31049 66.3682 4.31049H54.2881V31.494H66.3682C72.8985 31.494 76.3586 28.6724 76.3586 23.6976C76.3586 20.2116 74.1564 18.0944 71.4438 17.3139H71.4397ZM59.9102 8.81306H64.9496C67.9797 8.81306 69.4706 9.71357 69.4706 12.183C69.4706 14.6524 67.9757 15.5529 64.9496 15.5529H59.9102V8.81306ZM65.8176 26.9874H59.9102V19.8193H65.8176C68.9241 19.8193 70.6159 20.7599 70.6159 23.4214C70.6159 26.0829 68.9241 26.9874 65.8176 26.9874Z" fill="black"/>
<path d="M97.3645 23.5134C99.5668 22.5329 101.142 20.4597 101.142 17.5981C101.142 13.2516 98.2728 10.51 92.293 10.51H80.2129V37.6935H92.293C98.8233 37.6935 102.283 34.8719 102.283 29.8971C102.283 26.4111 100.081 24.2939 97.3686 23.5134H97.3645ZM85.835 15.0126H90.8744C93.9045 15.0126 95.3954 15.9131 95.3954 18.3825C95.3954 20.8519 93.9005 21.7524 90.8744 21.7524H85.835V15.0166V15.0126ZM91.7424 33.187H85.835V26.0189H91.7424C94.8489 26.0189 96.5407 26.9594 96.5407 29.6209C96.5407 32.2825 94.8489 33.187 91.7424 33.187Z" fill="black"/>
<path d="M43.8873 16.6735C43.8873 20.7919 41.5887 23.0812 37.992 23.0812C34.3953 23.0812 32.0966 20.7919 32.0966 16.6735V0.652344H26.6191V16.6735C26.6191 24.6981 30.9834 28.3562 37.992 28.3562C45.0005 28.3562 49.3286 24.8382 49.3286 16.6735V0.652344H43.8914V16.6735H43.8873Z" fill="black"/>
<path d="M96.677 47.1309L97.754 47.0109C97.9027 47.8153 98.6663 48.2276 99.6549 48.1155C100.623 48.0074 101.214 47.5031 101.142 46.8668C101.094 46.4425 100.816 46.1504 100.129 46.0703L98.3207 45.8622C97.3281 45.7501 96.661 45.2379 96.5525 44.2533C96.4239 43.1166 97.3924 42.2361 98.827 42.076C100.29 41.912 101.524 42.5083 101.68 43.825L100.607 43.9451C100.447 43.1246 99.7754 42.8285 98.9315 42.9205C98.0594 43.0166 97.5049 43.5009 97.5732 44.0972C97.6214 44.5214 97.8987 44.8216 98.5738 44.8937L100.382 45.1018C101.383 45.2058 102.05 45.7341 102.163 46.7107C102.295 47.8794 101.367 48.7799 99.7192 48.968C98.0353 49.1561 96.882 48.5157 96.677 47.1309Z" fill="#231F20"/>
<path d="M103.34 41.6798L104.377 41.5638L104.754 44.9017L107.7 41.1915L109.018 41.0435L106.567 44.1612L109.754 47.7393L108.484 47.8794L105.856 44.9217L104.895 46.1224L105.136 48.2556L104.099 48.3716L103.344 41.6798H103.34Z" fill="#231F20"/>
<path d="M110.417 40.8874L111.454 40.7713L112.209 47.4631L111.173 47.5792L110.417 40.8874Z" fill="#231F20"/>
<path d="M120.01 46.5907L118.692 46.7388L114.649 41.6559L115.268 47.123L114.271 47.2351L113.516 40.5432L114.834 40.3951L118.881 45.4901L118.262 40.0109L119.258 39.8989L120.014 46.5907H120.01Z" fill="#231F20"/>
<path d="M124.859 45.2579C125.816 45.1498 126.495 44.4694 126.567 43.5249L127.66 43.4008C127.644 44.9177 126.547 45.9663 124.96 46.1424C123.015 46.3585 121.552 45.1258 121.315 43.0526C121.082 40.9794 122.231 39.4546 124.18 39.2344C125.768 39.0583 127.074 39.8388 127.423 41.3116L126.33 41.4357C126.053 40.5312 125.237 40.0149 124.281 40.1229C123.043 40.263 122.235 41.3676 122.412 42.9285C122.589 44.4894 123.622 45.3899 124.859 45.2499V45.2579Z" fill="#231F20"/>
<path d="M133.46 43.3488L130.402 43.693L129.916 45.486L128.851 45.6061L130.731 38.6181L132.017 38.474L135.417 44.8697L134.324 44.9937L133.464 43.3528L133.46 43.3488ZM130.611 42.7805L133.05 42.5083L131.471 39.4626L130.611 42.7805Z" fill="#231F20"/>
<path d="M136.12 38.0138L139.054 37.6856C140.593 37.5135 141.521 38.1018 141.666 39.3745C141.774 40.3471 141.284 41.0395 140.432 41.3797L142.502 44.0772L141.328 44.2093L139.375 41.6638L137.603 41.86L137.912 44.5895L136.876 44.7056L136.12 38.0138ZM139.307 40.7913C140.187 40.6913 140.685 40.3351 140.597 39.5226C140.504 38.7022 139.938 38.462 139.058 38.5621L137.257 38.7622L137.511 40.9915L139.311 40.7913H139.307Z" fill="#231F20"/>
<path d="M143.346 37.2053L148.188 36.665L148.289 37.5735L144.483 37.9977L144.7 39.9148L148.156 39.5266L148.257 40.4151L144.8 40.8033L145.034 42.8685L148.895 42.4363L149 43.3528L144.101 43.9011L143.346 37.2093V37.2053Z" fill="#231F20"/>
</g>
<defs>
<clipPath id="clip0_135_266">
<rect width="149" height="49" fill="white"/>
</clipPath>
</defs>
</svg>
